<svg xmlns="http://www.w3.org/2000/svg" fill="curretnColor" viewBox="0 0 24 24">
  <path fill-rule="evenodd" d="M20 2a2 2 0 0 1 2 2v5.333a2 2 0 0 1-2 2h-5.333a2 2 0 0 1-2-2V4a2 2 0 0 1 2-2H20Zm-5 3.667a.666.666 0 1 0 1.333 0V5A.667.667 0 1 0 15 5v.667Zm4 .666a.667.667 0 0 1-.667-.666V5a.667.667 0 0 1 1.334 0v.667a.667.667 0 0 1-.667.666ZM15 8a.666.666 0 0 1 .667-.667H19a.667.667 0 1 1 0 1.334h-3.333A.666.666 0 0 1 15 8Z" clip-rule="evenodd"/>
  <path fill-rule="evenodd" d="M11.667 6h-7A2.667 2.667 0 0 0 2 8.667v10.666A2.667 2.667 0 0 0 4.667 22h10a2.667 2.667 0 0 0 2.666-2.667v-7H16v3.135a5.922 5.922 0 0 0-4.628.752 8.96 8.96 0 0 0-8.039-1.88V8.668a1.333 1.333 0 0 1 1.334-1.334h7V6Z" clip-rule="evenodd"/>
  <path d="M11.23 10.872c0-.467.17-.891.454-1.218a3.001 3.001 0 0 0 2.64 2.66c-.339.28-.765.431-1.205.43a1.881 1.881 0 0 1-1.89-1.872Z"/>
</svg>