<svg xmlns="http://www.w3.org/2000/svg" fill="none" viewBox="0 0 24 24">
  <path fill="#000" d="M11.091 23c1.647 0 3.024-1.183 3.34-2.75h-6.68c.317 1.567 1.694 2.75 3.34 2.75Zm6.375-11h-.011c-3.508 0-6.364-2.878-6.364-6.417 0-.972.222-1.892.608-2.718-.2-.02-.402-.032-.608-.032-3.514 0-6.363 2.873-6.363 6.417v2.556a6.167 6.167 0 0 1-2.171 4.705 1.612 1.612 0 0 0-.5 1.646c.193.718.896 1.177 1.634 1.177h14.795c.775 0 1.505-.506 1.662-1.272a1.614 1.614 0 0 0-.543-1.57c-1.321-1.117-2.086-2.759-2.14-4.493Z"/>
  <path fill="#FF1A1A" d="M22 5.583c0 2.532-2.035 4.584-4.545 4.584s-4.546-2.052-4.546-4.584C12.91 3.053 14.944 1 17.455 1 19.965 1 22 3.052 22 5.583Z"/>
</svg>