<svg xmlns="http://www.w3.org/2000/svg" fill="currentColor" viewBox="0 0 24 24">
  <path d="M7.706 11.33c0 2.602 2.053 4.711 4.586 4.711 2.533 0 4.586-2.109 4.586-4.71 0-2.602-2.053-4.712-4.586-4.712-2.532.003-4.583 2.11-4.586 4.711Zm4.586.298c-.761.004-1.406-.575-1.503-1.35-.098-.775.383-1.504 1.12-1.698v-.398c0-.18.142-.326.318-.326.176 0 .318.146.318.326v.379c.72.125 1.247.769 1.243 1.52a.327.327 0 0 1-.092.229.31.31 0 0 1-.444 0 .327.327 0 0 1-.093-.229.881.881 0 0 0-.87-.891c-.48 0-.868.4-.868.893s.39.893.87.892c.779.005 1.425.618 1.491 1.415.066.797-.47 1.513-1.237 1.652v.39c0 .18-.142.326-.318.326a.322.322 0 0 1-.318-.326v-.41a1.556 1.556 0 0 1-1.133-1.5.335.335 0 0 1 .097-.229.317.317 0 0 1 .45 0 .33.33 0 0 1 .096.229.887.887 0 0 0 .777.888.311.311 0 0 1 .12.004.883.883 0 0 0 .85-.906.881.881 0 0 0-.874-.88Zm7.36 6.66c-.003 0-.005.002-.008.003l-2.95 1.432c.032.168.046.338.041.51a.33.33 0 0 1-.096.224.313.313 0 0 1-.221.093h-.01l-4.317-.123a.314.314 0 0 1-.218-.104.332.332 0 0 1 .012-.457c.06-.06.14-.092.223-.091l3.97.112c-.132-.79-.788-1.375-1.568-1.399l-2.627-.074a3.386 3.386 0 0 1-1.488-.395l-.267-.142a3.947 3.947 0 0 0-4.122.239L5.9 22.04l.451-.249a1.917 1.917 0 0 1 1.464-.164l4.457 1.285c.86.18 1.752.078 2.551-.293L21 18.517a1.128 1.128 0 0 0-1.348-.23ZM3 22.721l.157-5.84 2.244.064-.156 5.84L3 22.722ZM12.59 4.87V1.326A.322.322 0 0 0 12.272 1a.322.322 0 0 0-.317.326v3.545c0 .18.142.326.317.326a.322.322 0 0 0 .318-.326Zm2.724 0V3.192a.322.322 0 0 0-.317-.326.322.322 0 0 0-.318.326v1.679c0 .18.142.326.318.326a.322.322 0 0 0 .317-.326Zm-5.448 0V3.192a.322.322 0 0 0-.318-.326.322.322 0 0 0-.318.326v1.679c0 .18.143.326.318.326a.322.322 0 0 0 .318-.326Z"/>
</svg>