<svg xmlns="http://www.w3.org/2000/svg" fill="none" viewBox="0 0 24 24">
  <path fill="#000" fill-rule="evenodd" d="M12 2C6.484 2 2 6.484 2 12s4.484 10 10 10 10-4.484 10-10S17.516 2 12 2Z" clip-rule="evenodd"/>
  <path fill="#fff" fill-rule="evenodd" d="M16.297 12.723A4.302 4.302 0 0 1 12 17.019a4.302 4.302 0 0 1-4.297-4.296c0-1.461.73-2.809 1.957-3.602a.624.624 0 0 1 .68 1.047 3.028 3.028 0 0 0-1.387 2.555A3.05 3.05 0 0 0 12 15.769a3.05 3.05 0 0 0 3.047-3.046c0-1.036-.52-1.993-1.387-2.555a.624.624 0 0 1 .68-1.047 4.272 4.272 0 0 1 1.957 3.602Zm-4.922-2.23V7.604c0-.343.281-.625.625-.625s.625.282.625.625v2.887a.627.627 0 0 1-.625.625.627.627 0 0 1-.625-.625Z" clip-rule="evenodd"/>
</svg>