<svg xmlns="http://www.w3.org/2000/svg" fill="none" viewBox="0 0 101 19">
  <path fill="#000" d="M47.87 12.937V9.383c0-1.362-.83-2.25-2.252-2.25-.71 0-1.48.236-2.014 1.006-.414-.651-1.006-1.007-1.895-1.007-.592 0-1.184.178-1.659.83V7.25h-1.243v5.686h1.243v-3.14c0-1.006.534-1.48 1.363-1.48s1.244.533 1.244 1.48v3.14H43.9v-3.14c0-1.006.592-1.48 1.362-1.48.83 0 1.244.533 1.244 1.48v3.14h1.362Zm18.42-5.686h-2.014V5.533h-1.243v1.718h-1.126v1.125h1.125v2.606c0 1.304.533 2.073 1.955 2.073.533 0 1.125-.177 1.54-.414l-.355-1.066c-.356.237-.77.296-1.066.296-.593 0-.83-.355-.83-.948V8.376h2.014V7.251Zm10.543-.119c-.71 0-1.184.356-1.48.83V7.25h-1.244v5.686h1.244V9.739c0-.948.414-1.481 1.184-1.481.237 0 .533.06.77.118l.356-1.184c-.237-.06-.593-.06-.83-.06ZM60.9 7.725c-.592-.415-1.422-.593-2.31-.593-1.421 0-2.369.711-2.369 1.836 0 .948.71 1.481 1.955 1.66l.592.058c.651.119 1.007.296 1.007.593 0 .414-.474.71-1.303.71-.83 0-1.481-.296-1.896-.592l-.592.948c.651.473 1.54.71 2.428.71 1.659 0 2.607-.77 2.607-1.836 0-1.007-.77-1.54-1.955-1.717l-.593-.06c-.533-.06-.947-.177-.947-.533 0-.414.414-.651 1.066-.651.71 0 1.422.296 1.777.474l.533-1.007Zm33.051-.593c-.71 0-1.184.356-1.48.83V7.25h-1.244v5.686h1.243V9.739c0-.948.415-1.481 1.185-1.481.237 0 .533.06.77.118l.356-1.184c-.237-.06-.593-.06-.83-.06Zm-15.874 2.962c0 1.718 1.185 2.961 3.021 2.961.83 0 1.422-.177 2.014-.65l-.592-1.008c-.474.355-.948.533-1.481.533-1.007 0-1.718-.71-1.718-1.836 0-1.066.71-1.777 1.718-1.836.533 0 1.007.177 1.48.533l.593-1.007c-.592-.474-1.185-.652-2.014-.652-1.836 0-3.02 1.244-3.02 2.962Zm11.491 0V7.25h-1.243v.71c-.415-.532-1.008-.829-1.778-.829-1.599 0-2.843 1.244-2.843 2.962 0 1.718 1.244 2.961 2.844 2.961.829 0 1.421-.296 1.776-.829v.711h1.244v-2.843Zm-4.56 0c0-1.007.65-1.836 1.717-1.836 1.007 0 1.718.77 1.718 1.836 0 1.007-.711 1.836-1.718 1.836-1.066-.06-1.718-.83-1.718-1.836ZM70.14 7.132c-1.658 0-2.843 1.185-2.843 2.962 0 1.777 1.184 2.961 2.902 2.961.83 0 1.659-.236 2.31-.77l-.592-.888c-.474.355-1.066.592-1.658.592-.77 0-1.54-.355-1.718-1.362h4.206v-.474c.059-1.836-1.007-3.02-2.607-3.02Zm0 1.066c.77 0 1.304.474 1.422 1.363H68.6c.119-.77.652-1.363 1.54-1.363ZM101 10.094V5h-1.244v2.962c-.415-.533-1.007-.83-1.777-.83-1.6 0-2.843 1.244-2.843 2.962 0 1.718 1.244 2.961 2.843 2.961.83 0 1.422-.296 1.777-.829v.711H101v-2.843Zm-4.56 0c0-1.007.65-1.836 1.717-1.836 1.007 0 1.718.77 1.718 1.836 0 1.007-.711 1.836-1.718 1.836-1.066-.06-1.718-.83-1.718-1.836Zm-41.582 0V7.25h-1.243v.71c-.415-.532-1.007-.829-1.778-.829-1.599 0-2.843 1.244-2.843 2.962 0 1.718 1.244 2.961 2.843 2.961.83 0 1.422-.296 1.777-.829v.711h1.244v-2.843Zm-4.62 0c0-1.007.652-1.836 1.718-1.836 1.007 0 1.718.77 1.718 1.836 0 1.007-.711 1.836-1.718 1.836-1.066-.06-1.718-.83-1.718-1.836Z"/>
  <path fill="#ED0006" fill-rule="evenodd" d="M15.903 16.518A9.466 9.466 0 0 1 9.5 19a9.5 9.5 0 0 1 0-19c2.467 0 4.715.94 6.403 2.482A9.466 9.466 0 0 1 22.307 0a9.5 9.5 0 0 1 0 19 9.465 9.465 0 0 1-6.404-2.482Z" clip-rule="evenodd"/>
  <path fill="#F9A000" fill-rule="evenodd" d="M16.717 17.182a10.013 10.013 0 0 0 3.027-7.196c0-3.107-1.403-5.882-3.602-7.714A9.463 9.463 0 0 1 22.307 0a9.5 9.5 0 0 1 0 19 9.457 9.457 0 0 1-5.59-1.818Z" clip-rule="evenodd"/>
  <path fill="#FF5E00" fill-rule="evenodd" d="M16.717 17.183a10.013 10.013 0 0 0 3.027-7.196c0-3.107-1.403-5.883-3.602-7.715A9.479 9.479 0 0 0 12.807 9.5a9.487 9.487 0 0 0 3.91 7.683Z" clip-rule="evenodd"/>
</svg>
