<svg xmlns="http://www.w3.org/2000/svg" fill="currentColor" viewBox="0 0 24 24">
  <path d="M20 3H4c-1.103 0-2 .961-2 2.143v11.429c0 1.181.897 2.143 2 2.143h2v3.571a.75.75 0 0 0 .103.38.685.685 0 0 0 .275.263.628.628 0 0 0 .705-.085l4.818-4.13H20c1.103 0 2-.96 2-2.142V5.142C22 3.963 21.103 3 20 3Zm-8 10H6.667a.645.645 0 0 1-.472-.209.74.74 0 0 1-.195-.505c0-.19.07-.371.195-.505a.645.645 0 0 1 .472-.21H12c.177 0 .346.076.471.21a.74.74 0 0 1 .196.505c0 .19-.07.371-.196.505a.645.645 0 0 1-.471.21Zm5.333-2.857H6.667a.645.645 0 0 1-.472-.21A.741.741 0 0 1 6 9.43c0-.19.07-.371.195-.505a.645.645 0 0 1 .472-.21h10.666c.177 0 .347.076.472.21A.74.74 0 0 1 18 9.43a.74.74 0 0 1-.195.505.645.645 0 0 1-.472.209Z"/>
</svg>