<svg xmlns="http://www.w3.org/2000/svg" fill="currentColor" viewBox="0 0 24 24">
  <path fill-rule="evenodd" d="M21.07 12.138A3.02 3.02 0 0 0 22 9.964c0-1.4-.969-2.586-2.276-2.938-.24-2.2-2.126-3.914-4.417-3.914a4.48 4.48 0 0 0-1.5.256A4.934 4.934 0 0 0 10.388 2a4.935 4.935 0 0 0-3.083 1.072 5.665 5.665 0 0 1 5.117 1.077 5.19 5.19 0 0 1 1.333-.174c2.464 0 4.56 1.733 5.026 4.082 1.4.564 2.347 1.92 2.347 3.442 0 .218-.02.431-.056.639ZM10.885 9.785v2.375a10.622 10.622 0 0 1-2.066-.26 7.503 7.503 0 0 1 2.066-2.115Zm-2.419 2.72a7.262 7.262 0 0 0-.814 3.04h3.232v-2.712a11.209 11.209 0 0 1-2.418-.328Zm-.813 3.712a7.349 7.349 0 0 0 .814 3.04 11.23 11.23 0 0 1 2.418-.327v-2.713H7.651Zm1.165 3.646a7.445 7.445 0 0 0 2.067 2.115v-2.376c-.707.021-1.407.108-2.067.261ZM9.803 22a6.357 6.357 0 0 1-2.841-1.466c.361-.19.756-.352 1.173-.485A8.076 8.076 0 0 0 9.803 22Zm-1.999-2.55c-.478.16-.928.356-1.338.588a6.214 6.214 0 0 1-1.583-3.82h2.088a8.013 8.013 0 0 0 .833 3.233Zm-.834-3.905H4.883a6.214 6.214 0 0 1 1.583-3.82c.41.232.86.427 1.338.587a7.92 7.92 0 0 0-.834 3.233Zm1.166-3.831a7.171 7.171 0 0 1-1.174-.485 6.357 6.357 0 0 1 2.844-1.467 8.158 8.158 0 0 0-1.67 1.952Zm4.505-1.952a6.358 6.358 0 0 1 2.844 1.467c-.362.19-.756.352-1.174.485a8.16 8.16 0 0 0-1.67-1.952Zm2.002 2.55c.478-.16.928-.355 1.338-.587a6.214 6.214 0 0 1 1.583 3.82h-2.088a7.922 7.922 0 0 0-.833-3.233Zm.832 3.905a8.014 8.014 0 0 1-.832 3.234c.478.16.928.355 1.338.587a6.213 6.213 0 0 0 1.583-3.82h-2.088Zm-1.163 3.832A8.073 8.073 0 0 1 12.644 22a6.358 6.358 0 0 0 2.841-1.466 7.177 7.177 0 0 0-1.173-.485Zm-2.749 1.929v-2.376c.707.021 1.407.108 2.067.261a7.446 7.446 0 0 1-2.067 2.115Zm2.418-2.72a11.207 11.207 0 0 0-2.418-.328v-2.713h3.232a7.349 7.349 0 0 1-.814 3.04Zm.815-3.713a7.26 7.26 0 0 0-.815-3.04c-.77.195-1.59.304-2.418.328v2.712h3.233ZM13.63 11.9c-.66.152-1.36.24-2.066.26V9.785A7.501 7.501 0 0 1 13.63 11.9Zm4.542-3.339c-.241-2.2-2.126-3.914-4.417-3.914a4.48 4.48 0 0 0-1.5.257 4.934 4.934 0 0 0-3.42-1.369c-2.719 0-4.922 2.178-4.922 4.865 0 .094.003.188.009.28C2.797 9.136 2 10.23 2 11.5c0 1.423 1.002 2.626 2.343 2.954.678-3.21 3.553-5.521 6.88-5.521 3.328 0 6.203 2.31 6.881 5.521 1.341-.328 2.343-1.531 2.343-2.955 0-1.4-.969-2.586-2.276-2.938ZM8.833 5.71c-1.503 0-2.721 1.204-2.721 2.69 0 .09-.036.175-.1.238a.342.342 0 0 1-.58-.237c0-1.858 1.522-3.363 3.401-3.363a.34.34 0 0 1 .24.099.334.334 0 0 1 0 .475.342.342 0 0 1-.24.098Z" clip-rule="evenodd"/>
</svg>