<svg xmlns="http://www.w3.org/2000/svg" fill="currentColor" viewBox="0 0 24 24">
  <path d="m20.902 9.828-1.566-.199a7.87 7.87 0 0 0-.474-1.145l.967-1.246a1.238 1.238 0 0 0-.102-1.649l-1.312-1.312a1.242 1.242 0 0 0-1.654-.106l-1.244.967a7.849 7.849 0 0 0-1.146-.474l-.2-1.564A1.248 1.248 0 0 0 12.934 2h-1.866c-.631 0-1.164.473-1.239 1.098L9.63 4.663a7.757 7.757 0 0 0-1.146.474L7.239 4.17a1.24 1.24 0 0 0-1.649.101L4.277 5.585A1.242 1.242 0 0 0 4.17 7.24l.967 1.245a7.783 7.783 0 0 0-.474 1.145l-1.564.2c-.627.074-1.1.607-1.1 1.238v1.866c0 .631.473 1.164 1.098 1.239l1.566.199c.13.397.288.78.474 1.145l-.967 1.246a1.238 1.238 0 0 0 .101 1.649l1.313 1.312a1.243 1.243 0 0 0 1.654.105l1.245-.967c.364.186.748.346 1.145.474l.2 1.563c.074.63.607 1.102 1.238 1.102h1.866c.631 0 1.164-.473 1.239-1.098l.199-1.566a7.866 7.866 0 0 0 1.145-.474l1.246.967a1.239 1.239 0 0 0 1.649-.102l1.312-1.312a1.242 1.242 0 0 0 .106-1.654l-.967-1.245c.186-.364.346-.748.474-1.145l1.563-.2a1.248 1.248 0 0 0 1.1-1.238v-1.866a1.247 1.247 0 0 0-1.096-1.239ZM12 16.167A4.171 4.171 0 0 1 7.833 12 4.171 4.171 0 0 1 12 7.833 4.171 4.171 0 0 1 16.167 12 4.171 4.171 0 0 1 12 16.167Z"/>
</svg>