<svg xmlns="http://www.w3.org/2000/svg" fill="currentColor" viewBox="0 0 24 24">
  <path d="M19.773 17.727h-2.864a3.276 3.276 0 0 1-3.273-3.272 3.276 3.276 0 0 1 3.273-3.273h2.864a.409.409 0 0 0 .409-.41V9.547c0-.858-.666-1.556-1.506-1.624l-2.35-4.103a1.616 1.616 0 0 0-2.221-.599L6.05 7.91H4.636C3.734 7.91 3 8.642 3 9.545v9.818C3 20.266 3.734 21 4.636 21h13.91c.902 0 1.636-.734 1.636-1.636v-1.228a.408.408 0 0 0-.41-.409Zm-2.94-11.375.892 1.557h-3.566l2.674-1.557ZM7.677 7.91l6.84-3.982a.802.802 0 0 1 1.099.298v.002L9.293 7.909H7.677Z"/>
  <path d="M19.772 12H16.91a2.457 2.457 0 0 0-2.455 2.455 2.457 2.457 0 0 0 2.455 2.454h2.863c.677 0 1.228-.55 1.228-1.227v-2.455c0-.676-.55-1.227-1.228-1.227Zm-2.863 3.273a.82.82 0 0 1 0-1.636.82.82 0 0 1 0 1.636Z"/>
</svg>