<svg xmlns="http://www.w3.org/2000/svg" fill="none" viewBox="0 0 138 130">
  <g filter="url(#a)">
    <path fill="#FF550D" d="m72.913 125.06-13.07-18.655-18.61 13.369-2.756-22.63-22.858 2.552 9.196-20.757-20.787-9.917 19.298-12.387-12.079-19.337 22.995-.507-.276-22.796L54.38 24.553 64.856 4.328l13.07 18.654L96.55 9.818l2.741 22.427 22.858-2.553-9.195 20.756 20.786 9.918-19.284 12.591 12.079 19.337-22.995.507.276 22.797-20.428-10.764-10.475 20.226Z"/>
    <path stroke="#000" d="m59.55 105.999-17.923 12.876-2.653-21.792-.06-.492-.492.055-21.993 2.457 8.843-19.961.197-.444-.44-.21-19.975-9.53 18.542-11.902.416-.267-.262-.419-11.613-18.591 22.116-.488.495-.01-.006-.496-.266-21.964L54.15 24.998l.444.23.23-.445L64.92 5.291 77.517 23.27l.288.411.41-.29 17.94-12.68 2.64 21.595.06.491.492-.054 21.993-2.457-8.843 19.96-.197.445.439.21 19.982 9.534-18.538 12.105-.411.268.26.415 11.613 18.592-22.116.487-.495.011.006.495.266 21.957-19.684-10.372-.446-.235-.231.447-10.097 19.493-12.596-17.978-.29-.415-.412.295Z"/>
  </g>
  <path fill="#fff" d="M47.001 44.975a153.6 153.6 0 0 1 2.684-.155 74.12 74.12 0 0 1 2.685-.131c.88-.027 1.706-.026 2.478.003l.01 2.67-6.346.423c-.4.026-.696.15-.89.372-.178.204-.254.514-.226.929l.562 8.43c.027.398.143.695.348.89.222.194.532.277.931.25l6.346-.423.345 2.647a53.07 53.07 0 0 1-2.457.308 75.85 75.85 0 0 1-2.679.227c-.909.077-1.802.145-2.68.203-1.054.07-1.928-.176-2.623-.739-.68-.564-1.06-1.34-1.142-2.329l-.668-10.01c-.05-1.007.222-1.835.82-2.484.615-.65 1.448-1.01 2.502-1.08Zm-2.665 6.913 9.89-.66.172 2.586-9.89.66-.172-2.586Zm19.417-3.557c.99-.066 1.837.014 2.541.24.704.21 1.253.622 1.646 1.237.41.598.65 1.44.722 2.525l.523 7.83-2.802.188-.674-2.529-.263-.343-.328-4.91c-.054-.573-.225-.97-.512-1.192-.273-.238-.768-.334-1.487-.285-.622.041-1.387.116-2.294.225-.908.092-1.838.203-2.792.33l-.468-2.326a23.68 23.68 0 0 1 1.945-.418c.745-.13 1.49-.244 2.238-.342a24.23 24.23 0 0 1 2.005-.23Zm3.485 4.65.109 1.99-5.268.351c-.43.045-.734.177-.912.398-.162.219-.23.504-.207.855l.038.575c.027.4.16.703.398.912.237.192.603.272 1.098.24a3.918 3.918 0 0 0 1.323-.354 6.652 6.652 0 0 0 1.412-.84 6.702 6.702 0 0 0 1.218-1.211l.102 1.532a9.504 9.504 0 0 1-.586.953c-.264.37-.6.746-1.007 1.126a6.554 6.554 0 0 1-1.451.963c-.56.262-1.207.417-1.942.466a5.127 5.127 0 0 1-1.963-.23 3.165 3.165 0 0 1-1.44-1.034c-.369-.473-.577-1.076-.626-1.81l-.082-1.222c-.063-.942.208-1.697.811-2.267.604-.57 1.464-.891 2.581-.966l6.394-.427Zm6.72-5.018.588 2.318.356.289.612 9.171-3.52.235-.79-11.83 2.755-.183Zm5.75-.697-.117 3.28-.982.065a6.882 6.882 0 0 0-1.732.356c-.596.2-1.346.499-2.25.896l-.371-1.972c.78-.79 1.582-1.404 2.402-1.844.82-.44 1.63-.686 2.428-.74l.623-.04Zm9.909-.66c2.235-.15 3.425.869 3.572 3.056l.59 8.86-3.543.237L89.718 51c-.035-.527-.155-.88-.36-1.058-.205-.195-.539-.277-1.002-.246-.51.034-1.03.173-1.56.417-.53.227-1.18.568-1.952 1.02l-.299-1.952c.798-.775 1.624-1.384 2.476-1.825.869-.443 1.734-.693 2.596-.75Zm-5.367.67.564 2.32.308.292.612 9.171-3.52.235-.79-11.83 2.826-.188ZM47.65 73.78c1.277-.085 2.316-.018 3.116.2.815.203 1.451.602 1.908 1.196.473.594.825 1.429 1.057 2.504.23 1.059.402 2.418.513 4.078.124 1.868.097 3.386-.081 4.552-.18 1.166-.52 2.071-1.022 2.714-.502.643-1.193 1.106-2.072 1.39-.864.265-1.927.44-3.188.525-.431.028-1.023.044-1.777.046a12.443 12.443 0 0 1-2.492-.219l.06-2.337c.448-.014.849-.024 1.2-.032.368-.024.767-.05 1.198-.08l1.629-.108c.718-.048 1.295-.175 1.73-.38.451-.207.782-.542.991-1.005.21-.479.335-1.12.377-1.925.042-.82.02-1.853-.062-3.099a42.9 42.9 0 0 0-.256-2.749c-.096-.715-.237-1.267-.423-1.655-.17-.39-.436-.645-.797-.765-.362-.136-.846-.184-1.453-.144-.702.047-1.221.194-1.558.441-.32.246-.52.604-.601 1.075-.065.469-.073 1.07-.024 1.805.042.639.141 1.161.297 1.568.154.39.405.67.753.84.347.153.824.21 1.43.169.448-.03.843-.113 1.187-.248a5.459 5.459 0 0 0 1.133-.677c.413-.3.916-.702 1.507-1.207l.189 1.383c-.475.817-.937 1.465-1.386 1.944-.45.463-.957.802-1.52 1.016-.547.213-1.22.346-2.017.399-1.198.08-2.154-.073-2.87-.458a3.686 3.686 0 0 1-1.56-1.748c-.324-.78-.52-1.681-.588-2.703-.091-1.357.003-2.477.28-3.362a3.572 3.572 0 0 1 1.667-2.06c.833-.488 2.008-.783 3.525-.884Zm14.816-1.037c1.58-.105 2.852.09 3.815.587.98.496 1.71 1.361 2.194 2.596.498 1.218.818 2.88.958 4.987.14 2.092.044 3.782-.287 5.07-.315 1.288-.924 2.243-1.829 2.865-.89.604-2.125.96-3.705 1.065-1.58.105-2.852-.082-3.814-.563-.964-.497-1.695-1.363-2.194-2.596-.483-1.235-.795-2.898-.934-4.989-.14-2.107-.053-3.797.263-5.069.33-1.289.94-2.243 1.83-2.864.888-.62 2.122-.983 3.703-1.089Zm.166 2.851c-.527.035-.96.153-1.3.352-.339.199-.598.52-.777.966-.18.428-.292 1.021-.338 1.778-.031.74-.008 1.684.069 2.834.075 1.133.178 2.072.308 2.817.146.744.336 1.317.572 1.718.235.401.534.678.897.83.363.152.808.21 1.334.176.543-.036.992-.155 1.348-.355.355-.2.623-.514.803-.943.18-.43.284-1.021.314-1.777.046-.757.031-1.702-.045-2.835-.076-1.15-.187-2.089-.332-2.817-.13-.745-.312-1.318-.548-1.719-.236-.417-.543-.701-.922-.852-.38-.151-.84-.209-1.383-.173Zm12.307-3.683c1.022-.069 1.846.037 2.474.316.627.262 1.092.745 1.396 1.446.303.701.496 1.667.578 2.896.08 1.213.017 2.188-.19 2.923-.207.735-.604 1.283-1.19 1.643-.586.344-1.39.55-2.412.618-1.005.067-1.822-.031-2.448-.294-.612-.28-1.07-.77-1.374-1.472-.303-.701-.495-1.658-.576-2.872-.082-1.229-.02-2.211.188-2.947.208-.735.597-1.274 1.167-1.617.585-.36 1.381-.573 2.387-.64Zm.13 1.963c-.382.026-.672.125-.87.299-.197.157-.33.455-.397.892-.05.437-.05 1.062.005 1.876.055.814.136 1.434.245 1.86.123.409.294.686.512.832.218.145.519.206.902.18.4-.026.697-.127.894-.3.213-.175.345-.472.397-.892.068-.438.074-1.064.02-1.878-.055-.814-.144-1.434-.269-1.858-.108-.426-.28-.703-.512-.832-.218-.146-.527-.205-.926-.179Zm11.89-2.429L78.17 88.63l-2.227.148 8.787-17.183 2.227-.149Zm.369 6.975c1.021-.068 1.838.038 2.45.318.627.263 1.092.745 1.396 1.446.302.685.494 1.643.576 2.872.081 1.213.018 2.188-.19 2.923-.207.736-.603 1.283-1.189 1.643-.57.343-1.366.548-2.388.616-1.006.067-1.822-.03-2.45-.293-.611-.28-1.077-.77-1.396-1.47-.303-.702-.496-1.66-.577-2.872-.082-1.23-.018-2.204.19-2.924.224-.736.62-1.276 1.191-1.618.585-.36 1.38-.574 2.387-.64Zm.105 1.942c-.383.025-.681.125-.894.3-.198.157-.322.454-.373.89-.052.42-.05 1.046.005 1.876.054.815.135 1.434.244 1.86.108.426.272.712.49.858.233.128.541.18.924.154.4-.026.698-.118.896-.276.213-.174.345-.48.396-.916.067-.438.073-1.064.019-1.878-.055-.83-.145-1.45-.268-1.858-.109-.426-.28-.703-.513-.832-.218-.146-.527-.205-.926-.178Zm9.724-9.718.431 6.466-.03 4.957-2.778.186-.712-4.908-.432-6.466 3.52-.235Zm-.474 13.093c.463-.03.789.044.977.224.204.162.32.475.352.938l.076 1.15c.031.463-.043.796-.221 1-.164.188-.478.297-.94.328l-.815.054c-.463.031-.796-.035-1-.198-.188-.18-.297-.5-.328-.964l-.077-1.15c-.03-.462.036-.787.2-.975.178-.204.5-.322.962-.353l.814-.054Z"/>
  <defs>
    <filter id="a" width="139.711" height="130.731" x="-.971" y="-.672" color-interpolation-filters="sRGB" filterUnits="userSpaceOnUse">
      <feFlood flood-opacity="0" result="BackgroundImageFix"/>
      <feGaussianBlur in="BackgroundImageFix" stdDeviation="2.5"/>
      <feComposite in2="SourceAlpha" operator="in" result="effect1_backgroundBlur_535_524"/>
      <feBlend in="SourceGraphic" in2="effect1_backgroundBlur_535_524" result="shape"/>
    </filter>
  </defs>
</svg>
